<svg width="14632" height="2315" viewBox="0 0 14632 2315" fill="none" xmlns="http://www.w3.org/2000/svg">
<path d="M5319.53 1857.21C5212.95 1857.21 5121.07 1840.06 5043.89 1805.76C4967.93 1770.23 4898.11 1716.94 4834.4 1645.89L5021.84 1460.29C5063.49 1508.07 5109.43 1545.43 5159.66 1572.39C5211.11 1598.11 5270.53 1610.98 5337.9 1610.98C5399.16 1610.98 5446.32 1599.95 5479.4 1577.9C5513.7 1555.85 5530.85 1525.22 5530.85 1486.02C5530.85 1450.49 5519.83 1421.7 5497.78 1399.65C5475.72 1377.6 5446.32 1358.61 5409.57 1342.69C5374.04 1326.76 5334.23 1311.45 5290.13 1296.75C5247.25 1282.04 5204.37 1265.51 5161.49 1247.13C5118.62 1227.53 5078.8 1203.64 5042.05 1175.46C5006.52 1146.06 4977.73 1109.92 4955.68 1067.05C4933.63 1022.94 4922.61 967.815 4922.61 901.662C4922.61 822.032 4941.59 753.428 4979.57 695.85C5018.77 638.272 5072.68 594.782 5141.28 565.381C5209.88 534.754 5288.9 519.441 5378.33 519.441C5468.99 519.441 5551.68 535.367 5626.41 567.218C5702.36 599.07 5764.84 642.56 5813.84 697.688L5626.41 883.285C5587.21 842.858 5547.39 812.844 5506.96 793.243C5467.76 773.642 5423.05 763.841 5372.82 763.841C5322.59 763.841 5282.78 773.642 5253.37 793.243C5223.97 811.619 5209.27 838.571 5209.27 874.097C5209.27 907.174 5220.3 934.126 5242.35 954.952C5264.4 974.553 5293.19 991.704 5328.72 1006.4C5365.47 1021.11 5405.28 1035.81 5448.16 1050.51C5492.26 1065.21 5535.75 1082.36 5578.63 1101.96C5621.51 1121.56 5660.71 1146.67 5696.24 1177.3C5732.99 1206.7 5762.39 1244.68 5784.44 1291.23C5806.49 1336.56 5817.52 1392.91 5817.52 1460.29C5817.52 1584.02 5773.42 1681.42 5685.21 1752.47C5597.01 1822.3 5475.11 1857.21 5319.53 1857.21ZM5975.57 1837V943.926H6256.72V1837H5975.57ZM6547.06 1837V1315.12C6547.06 1269.79 6532.97 1234.88 6504.79 1210.38C6477.84 1184.65 6444.15 1171.79 6403.73 1171.79C6375.55 1171.79 6350.44 1177.91 6328.38 1190.16C6306.33 1201.19 6288.57 1217.12 6275.09 1237.94C6262.84 1258.77 6256.72 1284.49 6256.72 1315.12L6148.3 1267.34C6148.3 1196.29 6163.61 1135.65 6194.24 1085.42C6224.87 1033.97 6266.52 994.767 6319.2 967.815C6371.87 939.639 6431.29 925.55 6497.44 925.55C6559.92 925.55 6615.66 939.639 6664.67 967.815C6714.89 995.992 6754.71 1035.19 6784.11 1085.42C6813.51 1135.65 6828.21 1195.68 6828.21 1265.51V1837H6547.06ZM7118.55 1837V1315.12C7118.55 1269.79 7104.46 1234.88 7076.29 1210.38C7049.34 1184.65 7015.65 1171.79 6975.22 1171.79C6947.04 1171.79 6921.93 1177.91 6899.88 1190.16C6877.83 1201.19 6860.06 1217.12 6846.59 1237.94C6834.34 1258.77 6828.21 1284.49 6828.21 1315.12L6666.5 1293.07C6668.95 1217.12 6686.72 1152.19 6719.79 1098.28C6754.1 1043.16 6798.81 1000.89 6853.94 971.49C6910.29 940.864 6973.38 925.55 7043.21 925.55C7111.82 925.55 7172.46 940.251 7225.13 969.653C7279.04 997.829 7321.3 1038.87 7351.93 1092.77C7383.78 1145.45 7399.71 1209.15 7399.71 1283.88V1837H7118.55ZM7952.91 1855.38C7870.83 1855.38 7797.33 1835.16 7732.4 1794.74C7668.69 1754.31 7617.85 1699.18 7579.88 1629.35C7543.12 1559.52 7524.75 1479.89 7524.75 1390.46C7524.75 1301.03 7543.12 1221.4 7579.88 1151.58C7617.85 1081.75 7668.69 1026.62 7732.4 986.191C7797.33 945.764 7870.83 925.55 7952.91 925.55C8012.94 925.55 8066.84 937.188 8114.62 960.465C8163.62 983.741 8203.44 1016.21 8234.06 1057.86C8264.69 1098.28 8281.84 1144.84 8285.52 1197.52V1583.41C8281.84 1636.09 8264.69 1683.25 8234.06 1724.91C8204.66 1765.33 8165.46 1797.19 8116.46 1820.46C8067.45 1843.74 8012.94 1855.38 7952.91 1855.38ZM8009.88 1601.79C8069.9 1601.79 8118.29 1582.19 8155.05 1542.98C8191.8 1502.56 8210.17 1451.72 8210.17 1390.46C8210.17 1348.81 8201.6 1312.06 8184.45 1280.21C8168.52 1248.36 8145.24 1223.85 8114.62 1206.7C8085.22 1188.33 8050.91 1179.14 8011.71 1179.14C7972.51 1179.14 7937.6 1188.33 7906.97 1206.7C7877.57 1223.85 7853.68 1248.36 7835.3 1280.21C7818.15 1312.06 7809.58 1348.81 7809.58 1390.46C7809.58 1430.89 7818.15 1467.03 7835.3 1498.88C7852.45 1530.73 7876.34 1555.85 7906.97 1574.22C7937.6 1592.6 7971.9 1601.79 8009.88 1601.79ZM8199.15 1837V1596.27L8241.41 1379.44L8199.15 1162.6V943.926H8474.79V1837H8199.15ZM8672.75 1837V943.926H8953.9V1837H8672.75ZM8953.9 1346.36L8836.29 1254.48C8859.57 1150.35 8898.77 1069.5 8953.9 1011.92C9009.03 954.339 9085.59 925.55 9183.6 925.55C9226.48 925.55 9263.84 932.288 9295.69 945.764C9328.77 958.015 9357.56 977.616 9382.06 1004.57L9214.84 1215.89C9202.59 1202.42 9187.27 1192 9168.9 1184.65C9150.52 1177.3 9129.7 1173.63 9106.42 1173.63C9059.87 1173.63 9022.5 1188.33 8994.33 1217.73C8967.37 1245.91 8953.9 1288.78 8953.9 1346.36ZM9592.72 1837V574.569H9873.88V1837H9592.72ZM9390.59 1182.81V943.926H10076V1182.81H9390.59ZM10225.6 1837V539.654H10514.1V1837H10225.6ZM10446.1 1327.98V1079.91H11094.8V1327.98H10446.1ZM10446.1 787.73V539.654H11124.2V787.73H10446.1ZM11628.1 1855.38C11546 1855.38 11472.5 1835.16 11407.6 1794.74C11343.9 1754.31 11293.1 1699.18 11255.1 1629.35C11218.3 1559.52 11199.9 1479.89 11199.9 1390.46C11199.9 1301.03 11218.3 1221.4 11255.1 1151.58C11293.1 1081.75 11343.9 1026.62 11407.6 986.191C11472.5 945.764 11546 925.55 11628.1 925.55C11688.1 925.55 11742 937.188 11789.8 960.465C11838.8 983.741 11878.6 1016.21 11909.3 1057.86C11939.9 1098.28 11957 1144.84 11960.7 1197.52V1583.41C11957 1636.09 11939.9 1683.25 11909.3 1724.91C11879.9 1765.33 11840.7 1797.19 11791.7 1820.46C11742.7 1843.74 11688.1 1855.38 11628.1 1855.38ZM11685.1 1601.79C11745.1 1601.79 11793.5 1582.19 11830.2 1542.98C11867 1502.56 11885.4 1451.72 11885.4 1390.46C11885.4 1348.81 11876.8 1312.06 11859.6 1280.21C11843.7 1248.36 11820.4 1223.85 11789.8 1206.7C11760.4 1188.33 11726.1 1179.14 11686.9 1179.14C11647.7 1179.14 11612.8 1188.33 11582.2 1206.7C11552.8 1223.85 11528.9 1248.36 11510.5 1280.21C11493.4 1312.06 11484.8 1348.81 11484.8 1390.46C11484.8 1430.89 11493.4 1467.03 11510.5 1498.88C11527.7 1530.73 11551.5 1555.85 11582.2 1574.22C11612.8 1592.6 11647.1 1601.79 11685.1 1601.79ZM11874.3 1837V1596.27L11916.6 1379.44L11874.3 1162.6V943.926H12150V1837H11874.3ZM12347.9 1837V943.926H12629.1V1837H12347.9ZM12629.1 1346.36L12511.5 1254.48C12534.8 1150.35 12574 1069.5 12629.1 1011.92C12684.2 954.339 12760.8 925.55 12858.8 925.55C12901.7 925.55 12939 932.288 12970.9 945.764C13004 958.015 13032.8 977.616 13057.3 1004.57L12890 1215.89C12877.8 1202.42 12862.5 1192 12844.1 1184.65C12825.7 1177.3 12804.9 1173.63 12781.6 1173.63C12735.1 1173.63 12697.7 1188.33 12669.5 1217.73C12642.6 1245.91 12629.1 1288.78 12629.1 1346.36ZM13126.8 1837V943.926H13407.9V1837H13126.8ZM13698.3 1837V1315.12C13698.3 1269.79 13684.2 1234.88 13656 1210.38C13629.1 1184.65 13595.4 1171.79 13554.9 1171.79C13526.8 1171.79 13501.6 1177.91 13479.6 1190.16C13457.5 1201.19 13439.8 1217.12 13426.3 1237.94C13414.1 1258.77 13407.9 1284.49 13407.9 1315.12L13299.5 1267.34C13299.5 1196.29 13314.8 1135.65 13345.4 1085.42C13376.1 1033.97 13417.7 994.767 13470.4 967.815C13523.1 939.639 13582.5 925.55 13648.7 925.55C13711.1 925.55 13766.9 939.639 13815.9 967.815C13866.1 995.992 13905.9 1035.19 13935.3 1085.42C13964.7 1135.65 13979.4 1195.68 13979.4 1265.51V1837H13698.3ZM14269.8 1837V1315.12C14269.8 1269.79 14255.7 1234.88 14227.5 1210.38C14200.5 1184.65 14166.9 1171.79 14126.4 1171.79C14098.3 1171.79 14073.1 1177.91 14051.1 1190.16C14029 1201.19 14011.3 1217.12 13997.8 1237.94C13985.5 1258.77 13979.4 1284.49 13979.4 1315.12L13817.7 1293.07C13820.2 1217.12 13837.9 1152.19 13871 1098.28C13905.3 1043.16 13950 1000.89 14005.1 971.49C14061.5 940.864 14124.6 925.55 14194.4 925.55C14263 925.55 14323.7 940.251 14376.3 969.653C14430.2 997.829 14472.5 1038.87 14503.1 1092.77C14535 1145.45 14550.9 1209.15 14550.9 1283.88V1837H14269.8Z" fill="black" style="fill:black;fill-opacity:1;"/>
<path d="M518.352 353.725C361.116 222.868 201.866 165.65 0.674784 159.75C0.474408 252.856 -2.64297 365.318 6.45938 455.996C23.5538 626.261 110.629 801.569 229.876 923.099C378.46 1073.7 580.374 1158.71 791.206 1159.43C1002.72 1160.67 1205.98 1076.86 1355.88 926.599C1476.92 804.682 1564.44 630.924 1582.9 459.228C1592.54 369.535 1589.29 251.59 1589.2 159.763C1356.94 169.176 1174.91 241.118 1008.69 413.549C898.02 528.352 805.025 728.83 798.38 890.654C783.868 708.962 657.588 469.603 518.352 353.725Z" fill="#BAD284" style="fill:#BAD284;fill:color(display-p3 0.7294 0.8235 0.5176);fill-opacity:1;"/>
<path d="M518.352 1353.48C361.116 1222.62 201.866 1165.4 0.674784 1159.5C0.474408 1252.61 -2.64297 1365.07 6.45938 1455.75C23.5538 1626.01 110.629 1801.32 229.876 1922.85C378.46 2073.45 580.374 2158.46 791.206 2159.18C1002.72 2160.42 1205.98 2076.61 1355.88 1926.35C1476.92 1804.43 1564.44 1630.67 1582.9 1458.98C1592.54 1369.28 1589.29 1251.34 1589.2 1159.51C1356.94 1168.93 1174.91 1240.87 1008.69 1413.3C898.02 1528.1 805.025 1728.58 798.38 1890.4C783.868 1708.71 657.588 1469.35 518.352 1353.48Z" fill="#BAD284" style="fill:#BAD284;fill:color(display-p3 0.7294 0.8235 0.5176);fill-opacity:1;"/>
<path fill-rule="evenodd" clip-rule="evenodd" d="M2012.25 1763.53V2157.5H2409.03C2409.03 1939.84 2231.47 1763.53 2012.25 1763.53ZM2012.25 945.891V1339.86C2409.03 1339.86 2815.73 1733.8 2815.73 2127.75H3212.52C3212.52 1536.83 2607.42 945.891 2012.25 945.891ZM4006.07 2127.75H3609.3C3609.3 1142.88 2805.81 551.97 2012.25 551.97V158C3202.6 158 4006.07 945.904 4006.07 2127.75Z" fill="#BAD284" style="fill:#BAD284;fill:color(display-p3 0.7294 0.8235 0.5176);fill-opacity:1;"/>
</svg>
