<svg width="4007" height="2002" viewBox="0 0 4007 2002" fill="none" xmlns="http://www.w3.org/2000/svg">
<path d="M518.352 195.725C361.116 64.8682 201.866 7.65039 0.674784 1.75C0.474408 94.8564 -2.64297 207.318 6.45938 297.996C23.5538 468.261 110.629 643.569 229.876 765.099C378.46 915.702 580.374 1000.71 791.206 1001.43C1002.72 1002.67 1205.98 918.857 1355.88 768.599C1476.92 646.682 1564.44 472.924 1582.9 301.228C1592.54 211.535 1589.29 93.5896 1589.2 1.76312C1356.94 11.176 1174.91 83.1185 1008.69 255.549C898.02 370.352 805.025 570.83 798.38 732.654C783.868 550.962 657.588 311.603 518.352 195.725Z" fill="#BAD284" style="fill:#BAD284;fill:color(display-p3 0.7294 0.8235 0.5176);fill-opacity:1;"/>
<path d="M518.352 1195.48C361.116 1064.62 201.866 1007.4 0.674784 1001.5C0.474408 1094.61 -2.64297 1207.07 6.45938 1297.75C23.5538 1468.01 110.629 1643.32 229.876 1764.85C378.46 1915.45 580.374 2000.46 791.206 2001.18C1002.72 2002.42 1205.98 1918.61 1355.88 1768.35C1476.92 1646.43 1564.44 1472.67 1582.9 1300.98C1592.54 1211.28 1589.29 1093.34 1589.2 1001.51C1356.94 1010.93 1174.91 1082.87 1008.69 1255.3C898.02 1370.1 805.025 1570.58 798.38 1732.4C783.868 1550.71 657.588 1311.35 518.352 1195.48Z" fill="#BAD284" style="fill:#BAD284;fill:color(display-p3 0.7294 0.8235 0.5176);fill-opacity:1;"/>
<path fill-rule="evenodd" clip-rule="evenodd" d="M2012.25 1605.53V1999.5H2409.03C2409.03 1781.84 2231.47 1605.53 2012.25 1605.53ZM2012.25 787.891V1181.86C2409.03 1181.86 2815.73 1575.8 2815.73 1969.75H3212.52C3212.52 1378.83 2607.42 787.891 2012.25 787.891ZM4006.07 1969.75H3609.3C3609.3 984.877 2805.81 393.97 2012.25 393.97V0C3202.6 0 4006.07 787.904 4006.07 1969.75Z" fill="#BAD284" style="fill:#BAD284;fill:color(display-p3 0.7294 0.8235 0.5176);fill-opacity:1;"/>
</svg>
